<svg width="655" height="325" viewBox="0 0 655 325" fill="none" xmlns="http://www.w3.org/2000/svg">
<path d="M240.632 121.881L243.686 112H263.057L266.111 121.881H280.21L262.345 65.6969H245.317L226.407 121.881H240.632ZM260.002 102.078H247.075L253.643 81.5221L260.002 102.078ZM302.175 121.881V64.106H288.787V121.881H302.175ZM329.788 141.892L329.787 120.144L329.829 120.183C330.249 120.571 330.698 120.919 331.177 121.227L331.419 121.378C333.455 122.606 335.994 123.22 339.034 123.22C342.52 123.22 345.79 122.355 348.845 120.625C351.899 118.894 354.367 116.396 356.25 113.131C358.133 109.865 359.074 105.916 359.074 101.283C359.074 96.6216 358.147 92.6584 356.292 89.3928C354.437 86.1273 352.031 83.6293 349.075 81.8989C346.118 80.1684 342.994 79.3032 339.703 79.3032C337.221 79.3032 334.878 79.9382 332.674 81.2081C331.088 82.1224 329.722 83.4383 328.576 85.1557L328.412 85.4088L327.319 80.6429H316.4V141.892H329.788ZM336.9 110.996C335.617 110.996 334.432 110.758 333.344 110.284C332.256 109.809 331.391 109.153 330.75 108.316C330.108 107.479 329.788 106.502 329.788 105.386H329.787V98.6033L329.792 98.3155C329.828 97.0795 330.1 95.9849 330.608 95.0319L330.729 94.8144C331.357 93.7399 332.228 92.9096 333.344 92.3234C334.459 91.7373 335.729 91.4443 337.151 91.4443C338.908 91.4443 340.421 91.849 341.69 92.6584C342.959 93.4678 343.943 94.6121 344.64 96.0914C345.337 97.5706 345.686 99.3011 345.686 101.283C345.686 103.627 345.219 105.511 344.284 106.935C343.35 108.358 342.206 109.391 340.854 110.033C339.501 110.675 338.183 110.996 336.9 110.996ZM377.692 75.326C380.146 75.326 382.085 74.6771 383.507 73.3792C384.93 72.0814 385.641 70.2463 385.641 67.8739C385.641 65.5573 384.93 63.7083 383.507 62.3267C382.085 60.9451 380.146 60.2543 377.692 60.2543C375.154 60.2543 373.194 60.9451 371.813 62.3267C370.433 63.7083 369.743 65.5573 369.743 67.8739C369.743 70.2463 370.433 72.0814 371.813 73.3792C373.194 74.6771 375.154 75.326 377.692 75.326ZM384.386 121.881V80.3917H370.998V121.881H384.386ZM413.17 121.881V104.506L413.172 104.08C413.204 101.264 413.553 98.9617 414.218 97.1723L414.321 96.9077C415.088 94.9959 416.113 93.6073 417.396 92.7421C418.679 91.8769 420.087 91.4443 421.621 91.4443C423.127 91.4443 424.41 91.9676 425.47 93.0142C426.53 94.0609 427.06 95.6727 427.06 97.8497V121.881H440.532V97.8497C440.532 94.2493 440.002 91.0535 438.942 88.2625C437.882 85.4714 436.229 83.2805 433.984 81.6896C431.739 80.0987 428.845 79.3032 425.303 79.3032C422.207 79.3032 419.439 80.1684 416.998 81.8989C415.483 82.973 414.167 84.4287 413.05 86.2663L412.935 86.4592L411.58 80.6429H399.782V121.881H413.17ZM470.111 123.22C473.514 123.22 476.519 122.606 479.127 121.378C481.735 120.15 483.855 118.489 485.486 116.396C487.118 114.303 488.143 111.972 488.561 109.405H475.257C474.894 110.493 474.253 111.289 473.332 111.791C472.412 112.293 471.338 112.545 470.111 112.545C468.605 112.545 467.357 112.189 466.367 111.477C465.376 110.765 464.63 109.767 464.128 108.484C463.626 107.2 463.375 105.679 463.375 103.92L463.376 104.004H488.143C488.804 101.043 488.932 98.1625 488.529 95.3639L488.457 94.8982C487.969 91.9536 486.937 89.3091 485.361 86.9646C483.785 84.6202 481.714 82.7571 479.148 81.3756C476.582 79.994 473.57 79.3032 470.111 79.3032C466.624 79.3032 463.361 80.1684 460.321 81.8989C457.281 83.6293 454.826 86.1203 452.958 89.3719C451.089 92.6235 450.154 96.524 450.154 101.073C450.154 105.623 451.096 109.558 452.978 112.879C454.861 116.201 457.323 118.755 460.363 120.541C463.403 122.327 466.652 123.22 470.111 123.22ZM476.47 97.2217H463.435L463.436 97.2102C463.538 96.0652 463.766 95.0474 464.122 94.1568L464.233 93.8934C464.805 92.5956 465.613 91.6047 466.659 90.9209C467.705 90.2371 468.94 89.8952 470.362 89.8952C471.645 89.8952 472.698 90.1534 473.521 90.6697C474.344 91.1861 474.978 91.8699 475.424 92.7212C475.871 93.5724 476.17 94.5005 476.324 95.5052C476.401 96.0076 476.448 96.5065 476.465 97.0019L476.47 97.2217ZM502.786 122.634C505.436 122.634 507.625 121.832 509.355 120.227C511.084 118.622 511.949 116.578 511.949 114.094C511.949 111.61 511.084 109.544 509.355 107.897C507.625 106.251 505.436 105.427 502.786 105.427C500.136 105.427 497.982 106.251 496.322 107.897C494.663 109.544 493.833 111.61 493.833 114.094C493.833 116.55 494.663 118.587 496.322 120.206C497.982 121.825 500.136 122.634 502.786 122.634ZM528.349 75.326C530.803 75.326 532.742 74.6771 534.164 73.3792C535.587 72.0814 536.298 70.2463 536.298 67.8739C536.298 65.5573 535.587 63.7083 534.164 62.3267C532.742 60.9451 530.803 60.2543 528.349 60.2543C525.894 60.2543 523.942 60.9451 522.492 62.3267C521.041 63.7083 520.316 65.5573 520.316 67.8739C520.316 70.2463 521.041 72.0814 522.492 73.3792C523.942 74.6771 525.894 75.326 528.349 75.326ZM520.358 143.358C525.239 143.358 528.935 142.025 531.445 139.36C533.955 136.694 535.21 132.194 535.21 125.858V80.4755H521.739V125.607C521.739 128.007 521.313 129.612 520.463 130.421C519.612 131.231 518.322 131.635 516.593 131.635C515.254 131.635 513.803 131.44 512.241 131.049C510.679 130.658 509.299 130.226 508.1 129.751V141.264C510.024 141.795 511.935 142.276 513.831 142.709C515.728 143.141 517.903 143.358 520.358 143.358ZM566.505 123.22C569.963 123.22 573.059 122.578 575.793 121.294C578.526 120.011 580.681 118.343 582.257 116.292C583.833 114.24 584.62 112.07 584.62 109.781C584.62 107.269 583.812 105.176 582.194 103.502C580.576 101.827 578.359 100.431 575.542 99.315L564.162 94.7516C562.405 94.1376 561.526 93.3003 561.526 92.2397C561.526 91.4582 561.945 90.8302 562.781 90.3558C563.618 89.8813 564.762 89.644 566.212 89.644C567.969 89.644 569.224 89.972 569.977 90.6279C570.73 91.2838 571.107 92.0583 571.107 92.9514H583.365C583.337 88.9881 581.845 85.7226 578.889 83.1549C575.932 80.5871 571.707 79.3032 566.212 79.3032C560.355 79.3032 555.739 80.4336 552.364 82.6943C548.989 84.9551 547.301 87.9136 547.301 91.5699C547.301 94.1655 548.103 96.4053 549.707 98.2893C551.311 100.173 553.591 101.729 556.547 102.957L566.547 106.851C567.606 107.269 568.387 107.688 568.89 108.107C569.392 108.525 569.643 109.084 569.643 109.781C569.643 110.312 569.461 110.807 569.099 111.268C568.736 111.728 568.192 112.098 567.467 112.377C566.742 112.656 565.821 112.796 564.706 112.796C562.865 112.796 561.408 112.517 560.334 111.958C559.26 111.4 558.695 110.395 558.639 108.944H546.548C546.52 112.154 547.35 114.812 549.038 116.92C550.725 119.027 553.075 120.604 556.087 121.65C559.1 122.697 562.572 123.22 566.505 123.22Z" fill="#C9C8C8"/>
<path fill-rule="evenodd" clip-rule="evenodd" d="M174.738 61.9767L205.068 92.194L174.738 122.411L144.408 92.194L174.738 61.9767Z" fill="#77C1D2"/>
<path fill-rule="evenodd" clip-rule="evenodd" d="M98.9126 61.9767L161.791 124.621H101.13L68.5825 92.194L98.9126 61.9767Z" fill="#C9C8C8"/>
<path d="M172.336 191.836H166.078V204H159.047V169.875H172.336C175.023 169.875 177.32 170.359 179.227 171.328C181.133 172.297 182.594 173.625 183.609 175.312C184.625 177 185.133 178.922 185.133 181.078C185.133 184.375 184 186.992 181.734 188.93C179.484 190.867 176.352 191.836 172.336 191.836ZM172.336 175.383H166.078V186.352H172.336C174.352 186.352 175.805 185.859 176.695 184.875C177.602 183.891 178.055 182.641 178.055 181.125C178.055 179.609 177.602 178.273 176.695 177.117C175.805 175.961 174.352 175.383 172.336 175.383ZM200.906 204.469C198.281 204.469 196.023 203.922 194.133 202.828C192.242 201.719 190.789 200.234 189.773 198.375C188.773 196.516 188.273 194.453 188.273 192.188V191.25C188.273 188.688 188.75 186.422 189.703 184.453C190.672 182.484 192.039 180.945 193.805 179.836C195.586 178.727 197.703 178.172 200.156 178.172C203.75 178.172 206.508 179.312 208.43 181.594C210.352 183.859 211.312 186.859 211.312 190.594V193.406H195.117C195.336 195.125 195.984 196.523 197.062 197.602C198.141 198.664 199.562 199.195 201.328 199.195C202.547 199.195 203.68 198.961 204.727 198.492C205.789 198.008 206.703 197.281 207.469 196.312L210.75 199.875C209.953 201.031 208.727 202.086 207.07 203.039C205.43 203.992 203.375 204.469 200.906 204.469ZM200.086 183.445C198.617 183.445 197.492 183.945 196.711 184.945C195.93 185.945 195.422 187.266 195.188 188.906H204.68V188.391C204.664 187 204.281 185.828 203.531 184.875C202.797 183.922 201.648 183.445 200.086 183.445ZM229.547 178.477L229.43 184.734C229.102 184.688 228.703 184.648 228.234 184.617C227.781 184.57 227.367 184.547 226.992 184.547C224.414 184.547 222.719 185.461 221.906 187.289V204H215.156V178.641H221.508L221.742 181.734C222.367 180.625 223.156 179.758 224.109 179.133C225.062 178.492 226.172 178.172 227.438 178.172C227.797 178.172 228.172 178.203 228.562 178.266C228.969 178.312 229.297 178.383 229.547 178.477ZM246.445 196.992C246.445 196.258 246.102 195.633 245.414 195.117C244.742 194.586 243.336 194.102 241.195 193.664C239.477 193.289 237.938 192.781 236.578 192.141C235.219 191.5 234.148 190.68 233.367 189.68C232.586 188.68 232.195 187.453 232.195 186C232.195 184.594 232.594 183.297 233.391 182.109C234.203 180.922 235.367 179.969 236.883 179.25C238.398 178.531 240.211 178.172 242.32 178.172C244.508 178.172 246.391 178.523 247.969 179.227C249.562 179.93 250.789 180.898 251.648 182.133C252.508 183.352 252.938 184.742 252.938 186.305H246.188C246.188 185.32 245.875 184.5 245.25 183.844C244.625 183.172 243.641 182.836 242.297 182.836C241.156 182.836 240.266 183.117 239.625 183.68C238.984 184.227 238.664 184.891 238.664 185.672C238.664 186.438 239.016 187.062 239.719 187.547C240.422 188.031 241.656 188.453 243.422 188.812C245.25 189.172 246.883 189.656 248.32 190.266C249.773 190.875 250.914 191.695 251.742 192.727C252.586 193.742 253.008 195.078 253.008 196.734C253.008 198.219 252.57 199.547 251.695 200.719C250.82 201.891 249.586 202.812 247.992 203.484C246.398 204.141 244.516 204.469 242.344 204.469C239.969 204.469 237.969 204.047 236.344 203.203C234.719 202.359 233.484 201.289 232.641 199.992C231.812 198.68 231.398 197.336 231.398 195.961H237.797C237.859 197.336 238.344 198.32 239.25 198.914C240.172 199.492 241.25 199.781 242.484 199.781C243.781 199.781 244.766 199.523 245.438 199.008C246.109 198.477 246.445 197.805 246.445 196.992ZM257.32 172.031C257.32 171.047 257.664 170.234 258.352 169.594C259.039 168.953 259.961 168.633 261.117 168.633C262.273 168.633 263.195 168.953 263.883 169.594C264.57 170.234 264.914 171.047 264.914 172.031C264.914 173.016 264.57 173.828 263.883 174.469C263.195 175.109 262.273 175.43 261.117 175.43C259.961 175.43 259.039 175.109 258.352 174.469C257.664 173.828 257.32 173.016 257.32 172.031ZM264.516 178.641V204H257.742V178.641H264.516ZM284.766 204C284.469 203.391 284.234 202.602 284.062 201.633C283.391 202.414 282.531 203.086 281.484 203.648C280.438 204.195 279.148 204.469 277.617 204.469C276.008 204.469 274.547 204.141 273.234 203.484C271.938 202.828 270.906 201.93 270.141 200.789C269.391 199.648 269.016 198.344 269.016 196.875C269.016 194.219 270 192.172 271.969 190.734C273.938 189.281 276.867 188.555 280.758 188.555H283.781V186.984C283.781 185.781 283.477 184.82 282.867 184.102C282.273 183.383 281.32 183.023 280.008 183.023C278.867 183.023 277.969 183.312 277.312 183.891C276.672 184.453 276.352 185.219 276.352 186.188H269.602C269.602 184.734 270.039 183.406 270.914 182.203C271.805 180.984 273.055 180.008 274.664 179.273C276.289 178.539 278.195 178.172 280.383 178.172C282.336 178.172 284.078 178.5 285.609 179.156C287.156 179.812 288.367 180.797 289.242 182.109C290.133 183.422 290.578 185.062 290.578 187.031V197.883C290.578 199.273 290.664 200.414 290.836 201.305C291.008 202.195 291.258 202.961 291.586 203.602V204H284.766ZM279.094 199.43C280.25 199.43 281.234 199.164 282.047 198.633C282.859 198.102 283.438 197.508 283.781 196.852V192.375H280.945C279.148 192.375 277.836 192.758 277.008 193.523C276.195 194.289 275.789 195.25 275.789 196.406C275.789 197.281 276.086 198.008 276.68 198.586C277.273 199.148 278.078 199.43 279.094 199.43ZM306.703 183.469C305.688 183.469 304.82 183.703 304.102 184.172C303.383 184.625 302.812 185.242 302.391 186.023V204H295.641V178.641H301.969L302.203 181.664C303.078 180.539 304.133 179.68 305.367 179.086C306.617 178.477 308.008 178.172 309.539 178.172C311.133 178.172 312.531 178.484 313.734 179.109C314.938 179.719 315.875 180.734 316.547 182.156C317.219 183.562 317.555 185.453 317.555 187.828V204H310.758V187.805C310.758 186.133 310.406 184.992 309.703 184.383C309 183.773 308 183.469 306.703 183.469ZM360.023 169.875V175.383H349.523V204H342.516V175.383H332.18V169.875H360.023ZM376.758 204L376.594 201.352C375.797 202.336 374.82 203.102 373.664 203.648C372.508 204.195 371.156 204.469 369.609 204.469C367.109 204.469 365.078 203.734 363.516 202.266C361.953 200.797 361.172 198.383 361.172 195.023V178.641H367.922V195.07C367.922 196.57 368.266 197.625 368.953 198.234C369.641 198.844 370.523 199.148 371.602 199.148C372.852 199.148 373.859 198.922 374.625 198.469C375.391 198 375.969 197.375 376.359 196.594V178.641H383.109V204H376.758ZM400.688 178.641V183.422H396.328V196.359C396.328 197.453 396.547 198.18 396.984 198.539C397.422 198.898 398.086 199.078 398.977 199.078C399.398 199.078 399.773 199.062 400.102 199.031C400.43 198.984 400.719 198.938 400.969 198.891L400.992 203.859C400.414 204.047 399.789 204.195 399.117 204.305C398.445 204.414 397.703 204.469 396.891 204.469C394.656 204.469 392.875 203.906 391.547 202.781C390.234 201.641 389.578 199.727 389.578 197.039V183.422H385.922V178.641H389.578V172.383H396.328V178.641H400.688ZM402.984 191.578V191.086C402.984 188.617 403.453 186.414 404.391 184.477C405.328 182.523 406.688 180.984 408.469 179.859C410.25 178.734 412.414 178.172 414.961 178.172C417.539 178.172 419.719 178.734 421.5 179.859C423.297 180.984 424.664 182.523 425.602 184.477C426.539 186.414 427.008 188.617 427.008 191.086V191.578C427.008 194.031 426.539 196.234 425.602 198.188C424.664 200.125 423.305 201.656 421.523 202.781C419.742 203.906 417.57 204.469 415.008 204.469C412.445 204.469 410.266 203.906 408.469 202.781C406.688 201.656 405.328 200.125 404.391 198.188C403.453 196.234 402.984 194.031 402.984 191.578ZM409.734 191.086V191.578C409.734 192.984 409.906 194.266 410.25 195.422C410.594 196.562 411.148 197.477 411.914 198.164C412.695 198.852 413.727 199.195 415.008 199.195C416.273 199.195 417.289 198.852 418.055 198.164C418.82 197.477 419.375 196.562 419.719 195.422C420.062 194.266 420.234 192.984 420.234 191.578V191.086C420.234 189.711 420.062 188.445 419.719 187.289C419.375 186.133 418.812 185.203 418.031 184.5C417.266 183.797 416.242 183.445 414.961 183.445C413.695 183.445 412.68 183.797 411.914 184.5C411.148 185.203 410.594 186.133 410.25 187.289C409.906 188.445 409.734 189.711 409.734 191.086ZM445.547 178.477L445.43 184.734C445.102 184.688 444.703 184.648 444.234 184.617C443.781 184.57 443.367 184.547 442.992 184.547C440.414 184.547 438.719 185.461 437.906 187.289V204H431.156V178.641H437.508L437.742 181.734C438.367 180.625 439.156 179.758 440.109 179.133C441.062 178.492 442.172 178.172 443.438 178.172C443.797 178.172 444.172 178.203 444.562 178.266C444.969 178.312 445.297 178.383 445.547 178.477ZM448.664 172.031C448.664 171.047 449.008 170.234 449.695 169.594C450.383 168.953 451.305 168.633 452.461 168.633C453.617 168.633 454.539 168.953 455.227 169.594C455.914 170.234 456.258 171.047 456.258 172.031C456.258 173.016 455.914 173.828 455.227 174.469C454.539 175.109 453.617 175.43 452.461 175.43C451.305 175.43 450.383 175.109 449.695 174.469C449.008 173.828 448.664 173.016 448.664 172.031ZM455.859 178.641V204H449.086V178.641H455.859ZM476.109 204C475.812 203.391 475.578 202.602 475.406 201.633C474.734 202.414 473.875 203.086 472.828 203.648C471.781 204.195 470.492 204.469 468.961 204.469C467.352 204.469 465.891 204.141 464.578 203.484C463.281 202.828 462.25 201.93 461.484 200.789C460.734 199.648 460.359 198.344 460.359 196.875C460.359 194.219 461.344 192.172 463.312 190.734C465.281 189.281 468.211 188.555 472.102 188.555H475.125V186.984C475.125 185.781 474.82 184.82 474.211 184.102C473.617 183.383 472.664 183.023 471.352 183.023C470.211 183.023 469.312 183.312 468.656 183.891C468.016 184.453 467.695 185.219 467.695 186.188H460.945C460.945 184.734 461.383 183.406 462.258 182.203C463.148 180.984 464.398 180.008 466.008 179.273C467.633 178.539 469.539 178.172 471.727 178.172C473.68 178.172 475.422 178.5 476.953 179.156C478.5 179.812 479.711 180.797 480.586 182.109C481.477 183.422 481.922 185.062 481.922 187.031V197.883C481.922 199.273 482.008 200.414 482.18 201.305C482.352 202.195 482.602 202.961 482.93 203.602V204H476.109ZM470.438 199.43C471.594 199.43 472.578 199.164 473.391 198.633C474.203 198.102 474.781 197.508 475.125 196.852V192.375H472.289C470.492 192.375 469.18 192.758 468.352 193.523C467.539 194.289 467.133 195.25 467.133 196.406C467.133 197.281 467.43 198.008 468.023 198.586C468.617 199.148 469.422 199.43 470.438 199.43ZM494.25 168V204H487.477V168H494.25Z" fill="#77C1D2"/>
<path d="M89.4961 262.73C89.4648 263.527 89.3477 264.312 89.1445 265.086C88.9414 265.852 88.6328 266.551 88.2188 267.184C87.8125 267.809 87.2891 268.309 86.6484 268.684C86.0156 269.059 85.2539 269.246 84.3633 269.246C83.6992 269.246 83.1211 269.098 82.6289 268.801C82.1445 268.496 81.7773 268.07 81.5273 267.523C80.7461 268.648 79.7148 269.211 78.4336 269.211C77.3008 269.211 76.4219 268.73 75.7969 267.77C75.1719 266.809 74.9336 265.539 75.082 263.961C75.2305 262.625 75.5586 261.465 76.0664 260.48C76.582 259.496 77.2266 258.738 78 258.207C78.7812 257.668 79.6328 257.398 80.5547 257.398C81.4531 257.398 82.1562 257.527 82.6641 257.785C83.1797 258.043 83.6719 258.34 84.1406 258.676L83.5547 265.426C83.5 265.965 83.5312 266.379 83.6484 266.668C83.7656 266.949 83.9297 267.145 84.1406 267.254C84.3516 267.355 84.5703 267.406 84.7969 267.406C85.3047 267.406 85.7461 267.203 86.1211 266.797C86.5039 266.391 86.8047 265.84 87.0234 265.145C87.25 264.449 87.375 263.672 87.3984 262.812C87.4844 261.078 87.2852 259.57 86.8008 258.289C86.3164 257.008 85.5352 256.016 84.457 255.312C83.3789 254.609 81.9844 254.258 80.2734 254.258C78.6719 254.258 77.2852 254.66 76.1133 255.465C74.9492 256.27 74.0352 257.375 73.3711 258.781C72.7148 260.18 72.3477 261.773 72.2695 263.562C72.1367 266.406 72.707 268.578 73.9805 270.078C75.2539 271.578 77.0938 272.328 79.5 272.328C80.1797 272.328 80.8711 272.25 81.5742 272.094C82.2852 271.945 82.8828 271.754 83.3672 271.52L83.8125 273.266C83.2656 273.617 82.582 273.879 81.7617 274.051C80.9492 274.223 80.1797 274.309 79.4531 274.309C77.3828 274.309 75.625 273.895 74.1797 273.066C72.7422 272.238 71.6602 271.023 70.9336 269.422C70.207 267.82 69.8867 265.867 69.9727 263.562C70.043 261.953 70.332 260.473 70.8398 259.121C71.3555 257.762 72.0625 256.578 72.9609 255.57C73.8594 254.562 74.9258 253.781 76.1602 253.227C77.4023 252.672 78.7891 252.395 80.3203 252.395C82.3594 252.395 84.0742 252.828 85.4648 253.695C86.8633 254.555 87.9062 255.758 88.5938 257.305C89.2812 258.852 89.582 260.66 89.4961 262.73ZM77.6602 263.961C77.582 265 77.6758 265.793 77.9414 266.34C78.207 266.887 78.6367 267.16 79.2305 267.16C79.5273 267.16 79.8633 267.023 80.2383 266.75C80.6211 266.469 80.9492 265.926 81.2227 265.121L81.7148 259.555C81.4102 259.453 81.0938 259.402 80.7656 259.402C79.8594 259.402 79.1523 259.789 78.6445 260.562C78.1445 261.336 77.8164 262.469 77.6602 263.961ZM94.0781 266.434H94.3008C96.0039 266.434 97.2852 266.059 98.1445 265.309C99.0117 264.551 99.5117 263.484 99.6445 262.109C99.2383 262.516 98.7656 262.844 98.2266 263.094C97.6875 263.344 97.1133 263.469 96.5039 263.469C95.4414 263.469 94.5391 263.215 93.7969 262.707C93.0547 262.199 92.4883 261.512 92.0977 260.645C91.7148 259.777 91.5234 258.805 91.5234 257.727C91.5234 256.625 91.7578 255.617 92.2266 254.703C92.7031 253.789 93.3711 253.059 94.2305 252.512C95.0977 251.965 96.1094 251.691 97.2656 251.691C98.4219 251.691 99.4336 251.984 100.301 252.57C101.168 253.148 101.844 253.961 102.328 255.008C102.812 256.055 103.055 257.27 103.055 258.652V259.824C103.055 261.668 102.723 263.293 102.059 264.699C101.402 266.098 100.426 267.191 99.1289 267.98C97.8398 268.77 96.2461 269.164 94.3477 269.164H94.0781V266.434ZM94.8984 257.691C94.8984 258.574 95.1016 259.34 95.5078 259.988C95.9141 260.637 96.5273 260.961 97.3477 260.961C97.9102 260.961 98.3906 260.812 98.7891 260.516C99.1875 260.219 99.4844 259.863 99.6797 259.449V258.066C99.6797 256.824 99.4492 255.895 98.9883 255.277C98.5273 254.652 97.9453 254.34 97.2422 254.34C96.7422 254.34 96.3164 254.5 95.9648 254.82C95.6211 255.133 95.3555 255.547 95.168 256.062C94.9883 256.57 94.8984 257.113 94.8984 257.691ZM116.965 264.324C116.965 265.395 116.715 266.297 116.215 267.031C115.715 267.758 115.027 268.309 114.152 268.684C113.285 269.051 112.301 269.234 111.199 269.234C110.098 269.234 109.109 269.051 108.234 268.684C107.359 268.309 106.668 267.758 106.16 267.031C105.652 266.297 105.398 265.395 105.398 264.324C105.398 263.379 105.645 262.555 106.137 261.852C106.629 261.141 107.293 260.59 108.129 260.199C107.402 259.824 106.828 259.316 106.406 258.676C105.984 258.027 105.773 257.289 105.773 256.461C105.773 255.43 106.004 254.562 106.465 253.859C106.934 253.148 107.574 252.609 108.387 252.242C109.207 251.875 110.137 251.691 111.176 251.691C112.23 251.691 113.164 251.875 113.977 252.242C114.797 252.609 115.438 253.148 115.898 253.859C116.367 254.562 116.602 255.43 116.602 256.461C116.602 257.289 116.391 258.027 115.969 258.676C115.547 259.316 114.969 259.828 114.234 260.211C115.07 260.594 115.734 261.141 116.227 261.852C116.719 262.555 116.965 263.379 116.965 264.324ZM113.227 256.613C113.227 255.926 113.047 255.375 112.688 254.961C112.328 254.539 111.824 254.328 111.176 254.328C110.543 254.328 110.047 254.531 109.688 254.938C109.336 255.344 109.16 255.902 109.16 256.613C109.16 257.309 109.336 257.871 109.688 258.301C110.047 258.723 110.551 258.934 111.199 258.934C111.848 258.934 112.348 258.723 112.699 258.301C113.051 257.871 113.227 257.309 113.227 256.613ZM113.566 264.102C113.566 263.32 113.348 262.703 112.91 262.25C112.473 261.797 111.895 261.57 111.176 261.57C110.465 261.57 109.887 261.797 109.441 262.25C109.004 262.703 108.785 263.32 108.785 264.102C108.785 264.883 109.004 265.496 109.441 265.941C109.879 266.379 110.465 266.598 111.199 266.598C111.926 266.598 112.5 266.379 112.922 265.941C113.352 265.496 113.566 264.883 113.566 264.102ZM122.684 251V257.727C123.098 257.211 123.594 256.809 124.172 256.52C124.75 256.23 125.387 256.086 126.082 256.086C127.34 256.086 128.352 256.457 129.117 257.199C129.891 257.941 130.277 259.203 130.277 260.984V269H126.879V260.961C126.879 260.117 126.699 259.535 126.34 259.215C125.988 258.895 125.488 258.734 124.84 258.734C124.309 258.734 123.867 258.844 123.516 259.062C123.164 259.273 122.887 259.562 122.684 259.93V269H119.309V251H122.684ZM132.305 262.789V262.543C132.305 261.309 132.539 260.207 133.008 259.238C133.477 258.262 134.156 257.492 135.047 256.93C135.938 256.367 137.02 256.086 138.293 256.086C139.582 256.086 140.672 256.367 141.562 256.93C142.461 257.492 143.145 258.262 143.613 259.238C144.082 260.207 144.316 261.309 144.316 262.543V262.789C144.316 264.016 144.082 265.117 143.613 266.094C143.145 267.062 142.465 267.828 141.574 268.391C140.684 268.953 139.598 269.234 138.316 269.234C137.035 269.234 135.945 268.953 135.047 268.391C134.156 267.828 133.477 267.062 133.008 266.094C132.539 265.117 132.305 264.016 132.305 262.789ZM135.68 262.543V262.789C135.68 263.492 135.766 264.133 135.938 264.711C136.109 265.281 136.387 265.738 136.77 266.082C137.16 266.426 137.676 266.598 138.316 266.598C138.949 266.598 139.457 266.426 139.84 266.082C140.223 265.738 140.5 265.281 140.672 264.711C140.844 264.133 140.93 263.492 140.93 262.789V262.543C140.93 261.855 140.844 261.223 140.672 260.645C140.5 260.066 140.219 259.602 139.828 259.25C139.445 258.898 138.934 258.723 138.293 258.723C137.66 258.723 137.152 258.898 136.77 259.25C136.387 259.602 136.109 260.066 135.938 260.645C135.766 261.223 135.68 261.855 135.68 262.543ZM153.246 265.496C153.246 265.129 153.074 264.816 152.73 264.559C152.395 264.293 151.691 264.051 150.621 263.832C149.762 263.645 148.992 263.391 148.312 263.07C147.633 262.75 147.098 262.34 146.707 261.84C146.316 261.34 146.121 260.727 146.121 260C146.121 259.297 146.32 258.648 146.719 258.055C147.125 257.461 147.707 256.984 148.465 256.625C149.223 256.266 150.129 256.086 151.184 256.086C152.277 256.086 153.219 256.262 154.008 256.613C154.805 256.965 155.418 257.449 155.848 258.066C156.277 258.676 156.492 259.371 156.492 260.152H153.117C153.117 259.66 152.961 259.25 152.648 258.922C152.336 258.586 151.844 258.418 151.172 258.418C150.602 258.418 150.156 258.559 149.836 258.84C149.516 259.113 149.355 259.445 149.355 259.836C149.355 260.219 149.531 260.531 149.883 260.773C150.234 261.016 150.852 261.227 151.734 261.406C152.648 261.586 153.465 261.828 154.184 262.133C154.91 262.438 155.48 262.848 155.895 263.363C156.316 263.871 156.527 264.539 156.527 265.367C156.527 266.109 156.309 266.773 155.871 267.359C155.434 267.945 154.816 268.406 154.02 268.742C153.223 269.07 152.281 269.234 151.195 269.234C150.008 269.234 149.008 269.023 148.195 268.602C147.383 268.18 146.766 267.645 146.344 266.996C145.93 266.34 145.723 265.668 145.723 264.98H148.922C148.953 265.668 149.195 266.16 149.648 266.457C150.109 266.746 150.648 266.891 151.266 266.891C151.914 266.891 152.406 266.762 152.742 266.504C153.078 266.238 153.246 265.902 153.246 265.496ZM165.574 265.496C165.574 265.129 165.402 264.816 165.059 264.559C164.723 264.293 164.02 264.051 162.949 263.832C162.09 263.645 161.32 263.391 160.641 263.07C159.961 262.75 159.426 262.34 159.035 261.84C158.645 261.34 158.449 260.727 158.449 260C158.449 259.297 158.648 258.648 159.047 258.055C159.453 257.461 160.035 256.984 160.793 256.625C161.551 256.266 162.457 256.086 163.512 256.086C164.605 256.086 165.547 256.262 166.336 256.613C167.133 256.965 167.746 257.449 168.176 258.066C168.605 258.676 168.82 259.371 168.82 260.152H165.445C165.445 259.66 165.289 259.25 164.977 258.922C164.664 258.586 164.172 258.418 163.5 258.418C162.93 258.418 162.484 258.559 162.164 258.84C161.844 259.113 161.684 259.445 161.684 259.836C161.684 260.219 161.859 260.531 162.211 260.773C162.562 261.016 163.18 261.227 164.062 261.406C164.977 261.586 165.793 261.828 166.512 262.133C167.238 262.438 167.809 262.848 168.223 263.363C168.645 263.871 168.855 264.539 168.855 265.367C168.855 266.109 168.637 266.773 168.199 267.359C167.762 267.945 167.145 268.406 166.348 268.742C165.551 269.07 164.609 269.234 163.523 269.234C162.336 269.234 161.336 269.023 160.523 268.602C159.711 268.18 159.094 267.645 158.672 266.996C158.258 266.34 158.051 265.668 158.051 264.98H161.25C161.281 265.668 161.523 266.16 161.977 266.457C162.438 266.746 162.977 266.891 163.594 266.891C164.242 266.891 164.734 266.762 165.07 266.504C165.406 266.238 165.574 265.902 165.574 265.496ZM176.883 269.234C175.57 269.234 174.441 268.961 173.496 268.414C172.551 267.859 171.824 267.117 171.316 266.188C170.816 265.258 170.566 264.227 170.566 263.094V262.625C170.566 261.344 170.805 260.211 171.281 259.227C171.766 258.242 172.449 257.473 173.332 256.918C174.223 256.363 175.281 256.086 176.508 256.086C178.305 256.086 179.684 256.656 180.645 257.797C181.605 258.93 182.086 260.43 182.086 262.297V263.703H173.988C174.098 264.562 174.422 265.262 174.961 265.801C175.5 266.332 176.211 266.598 177.094 266.598C177.703 266.598 178.27 266.48 178.793 266.246C179.324 266.004 179.781 265.641 180.164 265.156L181.805 266.938C181.406 267.516 180.793 268.043 179.965 268.52C179.145 268.996 178.117 269.234 176.883 269.234ZM176.473 258.723C175.738 258.723 175.176 258.973 174.785 259.473C174.395 259.973 174.141 260.633 174.023 261.453H178.77V261.195C178.762 260.5 178.57 259.914 178.195 259.438C177.828 258.961 177.254 258.723 176.473 258.723ZM183.973 253.016C183.973 252.523 184.145 252.117 184.488 251.797C184.832 251.477 185.293 251.316 185.871 251.316C186.449 251.316 186.91 251.477 187.254 251.797C187.598 252.117 187.77 252.523 187.77 253.016C187.77 253.508 187.598 253.914 187.254 254.234C186.91 254.555 186.449 254.715 185.871 254.715C185.293 254.715 184.832 254.555 184.488 254.234C184.145 253.914 183.973 253.508 183.973 253.016ZM187.57 256.32V269H184.184V256.32H187.57ZM195.82 258.734C195.312 258.734 194.879 258.852 194.52 259.086C194.16 259.312 193.875 259.621 193.664 260.012V269H190.289V256.32H193.453L193.57 257.832C194.008 257.27 194.535 256.84 195.152 256.543C195.777 256.238 196.473 256.086 197.238 256.086C198.035 256.086 198.734 256.242 199.336 256.555C199.938 256.859 200.406 257.367 200.742 258.078C201.078 258.781 201.246 259.727 201.246 260.914V269H197.848V260.902C197.848 260.066 197.672 259.496 197.32 259.191C196.969 258.887 196.469 258.734 195.82 258.734ZM213.902 266.363V269H203.367V266.996L209.426 258.957H203.555V256.32H213.715V258.266L207.609 266.363H213.902ZM223.359 269C223.211 268.695 223.094 268.301 223.008 267.816C222.672 268.207 222.242 268.543 221.719 268.824C221.195 269.098 220.551 269.234 219.785 269.234C218.98 269.234 218.25 269.07 217.594 268.742C216.945 268.414 216.43 267.965 216.047 267.395C215.672 266.824 215.484 266.172 215.484 265.438C215.484 264.109 215.977 263.086 216.961 262.367C217.945 261.641 219.41 261.277 221.355 261.277H222.867V260.492C222.867 259.891 222.715 259.41 222.41 259.051C222.113 258.691 221.637 258.512 220.98 258.512C220.41 258.512 219.961 258.656 219.633 258.945C219.312 259.227 219.152 259.609 219.152 260.094H215.777C215.777 259.367 215.996 258.703 216.434 258.102C216.879 257.492 217.504 257.004 218.309 256.637C219.121 256.27 220.074 256.086 221.168 256.086C222.145 256.086 223.016 256.25 223.781 256.578C224.555 256.906 225.16 257.398 225.598 258.055C226.043 258.711 226.266 259.531 226.266 260.516V265.941C226.266 266.637 226.309 267.207 226.395 267.652C226.48 268.098 226.605 268.48 226.77 268.801V269H223.359ZM220.523 266.715C221.102 266.715 221.594 266.582 222 266.316C222.406 266.051 222.695 265.754 222.867 265.426V263.188H221.449C220.551 263.188 219.895 263.379 219.48 263.762C219.074 264.145 218.871 264.625 218.871 265.203C218.871 265.641 219.02 266.004 219.316 266.293C219.613 266.574 220.016 266.715 220.523 266.715ZM228.34 262.812V262.566C228.34 261.277 228.531 260.148 228.914 259.18C229.305 258.203 229.867 257.445 230.602 256.906C231.344 256.359 232.242 256.086 233.297 256.086C233.945 256.086 234.52 256.207 235.02 256.449C235.527 256.691 235.973 257.031 236.355 257.469V251H239.754V269H236.695L236.531 267.641C236.141 268.141 235.676 268.531 235.137 268.812C234.598 269.094 233.977 269.234 233.273 269.234C232.227 269.234 231.336 268.957 230.602 268.402C229.867 267.84 229.305 267.074 228.914 266.105C228.531 265.137 228.34 264.039 228.34 262.812ZM231.715 262.566V262.812C231.715 263.508 231.793 264.141 231.949 264.711C232.105 265.281 232.359 265.734 232.711 266.07C233.062 266.406 233.535 266.574 234.129 266.574C234.676 266.574 235.133 266.453 235.5 266.211C235.867 265.969 236.152 265.637 236.355 265.215V260.082C236.152 259.66 235.867 259.332 235.5 259.098C235.141 258.855 234.691 258.734 234.152 258.734C233.559 258.734 233.082 258.906 232.723 259.25C232.371 259.586 232.113 260.043 231.949 260.621C231.793 261.199 231.715 261.848 231.715 262.566ZM248.227 269.234C246.914 269.234 245.785 268.961 244.84 268.414C243.895 267.859 243.168 267.117 242.66 266.188C242.16 265.258 241.91 264.227 241.91 263.094V262.625C241.91 261.344 242.148 260.211 242.625 259.227C243.109 258.242 243.793 257.473 244.676 256.918C245.566 256.363 246.625 256.086 247.852 256.086C249.648 256.086 251.027 256.656 251.988 257.797C252.949 258.93 253.43 260.43 253.43 262.297V263.703H245.332C245.441 264.562 245.766 265.262 246.305 265.801C246.844 266.332 247.555 266.598 248.438 266.598C249.047 266.598 249.613 266.48 250.137 266.246C250.668 266.004 251.125 265.641 251.508 265.156L253.148 266.938C252.75 267.516 252.137 268.043 251.309 268.52C250.488 268.996 249.461 269.234 248.227 269.234ZM247.816 258.723C247.082 258.723 246.52 258.973 246.129 259.473C245.738 259.973 245.484 260.633 245.367 261.453H250.113V261.195C250.105 260.5 249.914 259.914 249.539 259.438C249.172 258.961 248.598 258.723 247.816 258.723ZM258.645 251V257.727C259.059 257.211 259.555 256.809 260.133 256.52C260.711 256.23 261.348 256.086 262.043 256.086C263.301 256.086 264.312 256.457 265.078 257.199C265.852 257.941 266.238 259.203 266.238 260.984V269H262.84V260.961C262.84 260.117 262.66 259.535 262.301 259.215C261.949 258.895 261.449 258.734 260.801 258.734C260.27 258.734 259.828 258.844 259.477 259.062C259.125 259.273 258.848 259.562 258.645 259.93V269H255.27V251H258.645Z" fill="#C9C8C8"/>
</svg>
